<svg width="241" height="32" viewBox="0 0 241 32" fill="none" xmlns="http://www.w3.org/2000/svg">
<mask id="mask0_373_52" style="mask-type:luminance" maskUnits="userSpaceOnUse" x="146" y="0" width="33" height="32">
<path d="M165.686 1.67987C173.682 3.68918 176.393 10.8616 176.612 12.6867C176.83 14.5119 176.02 17.1755 171.873 10.3455C166.802 1.98629 159.894 1.80587 152.146 6.16608C152.146 6.16608 157.698 -0.329862 165.686 1.67987ZM146.53 16.0013C146.531 20.2449 148.217 24.3144 151.219 27.3147C154.22 30.315 158.29 32.0003 162.533 32C166.776 31.999 170.844 30.313 173.844 27.3128C176.844 24.3126 178.529 20.2439 178.53 16.0013C178.53 11.7583 176.844 7.68911 173.845 4.68844C170.845 1.68776 166.776 0.00133198 162.533 0C158.289 -3.62974e-08 154.219 1.68578 151.218 4.68653C148.217 7.68729 146.531 11.7573 146.53 16.0013Z" fill="white"/>
</mask>
<g mask="url(#mask0_373_52)">
<path d="M178.529 -0.32959H146.529V32.0003H178.529V-0.32959Z" fill="url(#paint0_linear_373_52)"/>
</g>
<path d="M24.3098 2.57178V30.8386H20.999L4.03746 9.75885V30.8386H0V2.57178H3.31203L20.271 23.6503V2.57178H24.3098Z" fill="white"/>
<path d="M56.0126 23.7726H40.9904L37.8819 30.8386H33.7222L46.5228 2.57178H50.52L63.3629 30.8386H59.1224L56.0126 23.7726ZM54.5998 20.5417L48.5019 6.69045L42.4049 20.5413L54.5998 20.5417Z" fill="white"/>
<path d="M76.8137 2.57178H72.7754V30.8386H76.8137V2.57178Z" fill="white"/>
<path d="M90.5051 2.57178H94.5434V27.3257H109.848V30.8386H90.5051V2.57178Z" fill="white"/>
<path d="M115.989 28.5776L119.058 21.6312C121.899 23.2676 125.108 24.1572 128.386 24.217C131.092 24.217 132.062 23.6506 132.062 22.6807C132.062 19.1275 116.433 21.9942 116.433 11.4561C116.433 6.20597 120.834 1.92529 129.598 1.92529C133.393 1.92529 137.31 2.73405 140.258 4.3888L137.391 11.2958C134.605 9.88176 131.979 9.1965 129.516 9.1965C126.731 9.1965 125.841 10.004 125.841 10.9735C125.841 14.3642 141.469 11.5378 141.469 21.9561C141.469 27.125 137.068 31.4869 128.305 31.4869C123.58 31.4869 118.816 30.3148 115.988 28.5793" fill="white"/>
<path d="M194.863 9.75902V14.6048H206.654V21.7931H194.863V30.8384H185.333V2.57153H208.309V9.7586L194.863 9.75902Z" fill="white"/>
<path d="M222.892 9.96072H214.614V2.57104H240.7V9.96029H232.42V30.8379H222.892V9.96072Z" fill="white"/>
<defs>
<linearGradient id="paint0_linear_373_52" x1="306.015" y1="306.675" x2="307.199" y2="306.675" gradientUnits="userSpaceOnUse">
<stop stop-color="white"/>
<stop offset="1" stop-color="white"/>
</linearGradient>
</defs>
</svg>
