<svg width="19" height="24" viewBox="0 0 19 24" fill="none" xmlns="http://www.w3.org/2000/svg">
<path d="M11.9558 3.38328V0L16.2828 3.38328L19 5.63879L16.2828 7.89431L11.9558 11.2776V7.89431C3.102 7.20187 2.1113e-07 14 2.1113e-07 14C2.1113e-07 10.6878 0.263027 8.78412 2.77267 6.18125C5.68989 3.15322 9.91465 3.2908 11.9558 3.38328Z" fill="black"/>
<path d="M7.04416 20.8584L7.04416 24L2.71724 20.8584L-4.57748e-07 18.764L2.71724 16.6696L7.04416 13.528L7.04416 16.6696C15.898 17.3125 19 11 19 11C19 14.0756 18.737 15.8433 16.2273 18.2603C13.3101 21.072 9.08535 20.9443 7.04416 20.8584Z" fill="black"/>
</svg>
